<?xml version="1.0" encoding="UTF-8"?>
<svg id="Layer_1" xmlns="http://www.w3.org/2000/svg" viewBox="0 0 629.39 69">
  <defs>
    <style>
      .cls-1 {
        fill: #252122;
      }

      .cls-2 {
        fill: #ff1d8d;
      }
    </style>
  </defs>
  <path class="cls-1" d="M60.4,1h-17l-15.7,26.7h-12.7V1H0v67h15v-25.8h12.9l15,25.8h17.2l-19.9-33.8L60.4,1Z"/>
  <path class="cls-1" d="M107.8,1v26.6h-29.2V1h-15v67h15v-27h29.2v27h15V1h-15Z"/>
  <path class="cls-2" d="M132.2,1v12.45h14.9V1h-14.9ZM176,41.7c0,9.6-3.4,12.8-14.4,12.8s-14.5-3.2-14.5-12.8v-6.72h-14.9v6.92c0,16.7,9.9,27.1,29.4,27.1s29.4-10.4,29.4-27.1v-6.92h-15v6.72ZM176,1v12.45h15V1h-15Z"/>
  <path class="cls-1" d="M235.4,28.8l-11.9-2.3c-7.8-1.5-9.6-2.5-9.6-6.8s2.7-6.1,11.3-6.1c9.9,0,12.8,2.3,12.8,9.3v1.1h14.8v-.8c0-13.3-8-23.2-27.1-23.2s-26.7,10.1-26.7,20.3,5.4,16.9,18.2,19.1l11.8,2.1c9.4,1.6,10.4,3.2,10.4,7.7s-2.1,6.2-10.6,6.2c-12.1,0-14.8-2.1-14.8-9.5v-1h-14.7v1.3c0,14.8,9.1,22.8,28.8,22.8s26.2-9.6,26.2-20.3c0-9.8-4.8-17.2-18.9-19.9Z"/>
  <path class="cls-1" d="M304.5,1v26.6h-29.2V1h-15v67h15v-27h29.2v27h15V1h-15Z"/>
  <path class="cls-1" d="M329.19,1v67h15V1h-15Z"/>
  <path class="cls-1" d="M408.69,28.8l-11.9-2.3c-7.8-1.5-9.6-2.5-9.6-6.8s2.7-6.1,11.3-6.1c9.9,0,12.8,2.3,12.8,9.3v1.1h14.8v-.8c0-13.3-8-23.2-27.1-23.2s-26.7,10.1-26.7,20.3,5.4,16.9,18.2,19.1l11.8,2.1c9.4,1.6,10.4,3.2,10.4,7.7s-2.1,6.2-10.6,6.2c-12.1,0-14.8-2.1-14.8-9.5v-1h-14.7v1.3c0,14.8,9.1,22.8,28.8,22.8s26.21-9.6,26.21-20.3c0-9.8-4.81-17.2-18.91-19.9Z"/>
  <path class="cls-1" d="M477.79,1v26.6h-29.2V1h-15v67h15v-27h29.2v27h15.01V1h-15.01Z"/>
  <path class="cls-1" d="M542.39,1h-21.8l-24.7,67h15.6l5.5-14.9h28.4l5.4,14.9h16.3L542.39,1ZM521.89,39.7l3.8-10.4,5.1-15.1h1l4.9,15.1,3.8,10.4h-18.6Z"/>
  <path class="cls-1" d="M614.39,1v26.6h-29.2V1h-15v67h15v-27h29.2v27h15V1h-15Z"/>
</svg>