<svg width="20" height="20" viewBox="0 0 20 20" fill="none" xmlns="http://www.w3.org/2000/svg">
<path d="M8.3833 11.0777C8.74118 11.5562 9.19777 11.952 9.7221 12.2385C10.2464 12.525 10.8262 12.6953 11.4222 12.738C12.0181 12.7807 12.6163 12.6947 13.1761 12.4859C13.7359 12.2771 14.2442 11.9503 14.6666 11.5277L17.1666 9.02773C17.9256 8.24189 18.3456 7.18938 18.3361 6.09689C18.3266 5.0044 17.8884 3.95935 17.1159 3.18682C16.3433 2.41429 15.2983 1.97608 14.2058 1.96659C13.1133 1.95709 12.0608 2.37707 11.275 3.13606L9.84164 4.56106M11.7166 9.41106C11.3588 8.93262 10.9022 8.53674 10.3778 8.25028C9.85352 7.96382 9.27372 7.79347 8.67776 7.75078C8.08181 7.7081 7.48365 7.79409 6.92385 8.00291C6.36405 8.21173 5.85571 8.5385 5.4333 8.96106L2.9333 11.4611C2.17431 12.2469 1.75434 13.2994 1.76383 14.3919C1.77332 15.4844 2.21153 16.5294 2.98406 17.302C3.75659 18.0745 4.80165 18.5127 5.89413 18.5222C6.98662 18.5317 8.03913 18.1117 8.82497 17.3527L10.25 15.9277" stroke="#007E42" stroke-width="2" stroke-linecap="round" stroke-linejoin="round"/>
</svg>
